<?xml version="1.0" encoding="utf-8"?>
<svg viewBox="0 0 200 200" width="13px" height="13px" preserveAspectRatio="none" xmlns="http://www.w3.org/2000/svg" xmlns:bx="https://boxy-svg.com">
  <defs>
    <path id="path-0" style="fill: none;" d="M 30.494701383531936 46.654270118022175 L 47.65323681079477 57.7538297861627"/>
    <path id="path-1" style="fill: none;" d="M 10.305 11.493 C 16.73 16.149 22.361 18.722 27.674 21.237 C 35.553 25.061 42.346 27.217 49.108 29.718 C 54.718 31.422 59.428 32.415 61.632 34.933 C 62.141 35.314 62.462 36.061 62.834 36.48 C 63.255 37.173 63.637 37.88 63.865 38.566 C 64.413 40.235 65.149 41.568 65.706 42.963 C 66.048 43.964 66.133 44.583 66.295 45.149 C 66.544 45.896 67.015 46.284 67.522 46.646 C 70.135 47.575 71.515 46.426 73.086 44.767 L 73.661 44.235 C 74.218 43.706 74.636 43.089 75.109 42.487"/>
  </defs>
  <g style="" transform="matrix(0.835834, 0, 0, 1.275746, 7.465662, -21.519302)" bx:origin="0 0">
    <g>
      <rect x="55" y="46" width="100" height="65" style="stroke: rgb(0, 0, 0); fill: rgb(19, 52, 79);"/>
      <g style="" transform="matrix(0.67157, 0, 0, 0.676753, 34.495205, 22.42296)">
        <path d="M 80.182 64.035 L 92.562 64.035 L 92.562 80.985 L 103.032 80.985 L 103.032 86.125 L 76.882 86.125 L 76.882 91.255 L 87.322 91.255 L 87.322 124.465 L 112.662 124.465 L 112.662 86.125 L 117.902 86.125 L 117.902 64.035 L 140.972 64.035 L 140.972 47.445 L 69.702 47.445 L 69.702 64.035 L 80.182 64.035 Z" style="paint-order: fill; fill: rgb(241, 228, 222);"/>
        <path d="M 76.892 102.285 L 82.032 102.285 L 82.032 107.425 L 76.892 107.425 L 76.892 102.285 Z" style="paint-order: fill; fill: rgb(241, 228, 222);"/>
        <path d="M 92.562 64.035 L 97.792 64.035 L 97.792 80.985 L 103.032 80.985 L 103.032 86.125 L 92.562 86.125 L 92.562 124.465 L 117.902 124.465 L 117.902 86.125 L 133.072 86.125 L 133.072 80.985 L 123.142 80.985 L 123.142 69.175 L 117.902 69.175 L 117.902 64.035 L 146.212 64.035 L 146.212 47.445 L 74.942 47.445 L 74.942 64.035 L 92.562 64.035 Z" style="paint-order: fill; fill: rgb(241, 228, 222);"/>
        <path d="M 117.922 119.335 L 128.432 119.335 L 128.432 124.475 L 117.922 124.475 L 117.922 119.335 Z M 133.072 91.255 L 138.212 91.255 L 138.212 96.395 L 133.072 96.395 L 133.072 91.255 Z" style="paint-order: fill; fill: rgb(241, 228, 222);"/>
        <path d="M 92.562 64.035 L 97.792 64.035 L 97.792 80.985 L 103.032 80.985 L 103.032 86.125 L 92.562 86.125 L 92.562 124.465 L 112.662 124.465 L 112.662 86.125 L 117.902 86.125 L 117.902 64.035 L 140.972 64.035 L 140.972 47.445 L 74.942 47.445 L 74.942 64.035 L 92.562 64.035 Z" style="paint-order: fill; fill: rgb(236, 119, 53);"/>
      </g>
    </g>
  </g>
</svg>